<svg xmlns="http://www.w3.org/2000/svg" viewBox="0 0 227.9 206.29"><defs><style>.cls-1{fill:#fff;}.cls-2{fill:#004481;}.cls-3{fill:#2a86ca;}.cls-4{fill:#0977ba;}.cls-5{fill:#072146;}.cls-6{fill:#fade8e;}</style></defs><title>Asset 1</title><g id="Layer_2" data-name="Layer 2"><g id="Capa_1" data-name="Capa 1"><path class="cls-1" d="M67.51,31.76A10.28,10.28,0,0,0,59,15.9a10.16,10.16,0,0,0-5,1.3,18,18,0,0,0-35.56-3A11.89,11.89,0,0,0,0,24.25a12.16,12.16,0,0,0,2.46,7.34Z"/><path class="cls-2" d="M203.59,154.74a8.77,8.77,0,0,1-8.55,9H31a8.77,8.77,0,0,1-8.55-9V61.66a8.77,8.77,0,0,1,8.55-9H195a8.77,8.77,0,0,1,8.55,9Z"/><path class="cls-3" d="M203.59,150.17a8.57,8.57,0,0,1-8.55,8.58H31a8.57,8.57,0,0,1-8.55-8.58V61.26A8.56,8.56,0,0,1,31,52.69H195a8.56,8.56,0,0,1,8.55,8.57Z"/><path class="cls-4" d="M203.59,150.17V61.26A8.56,8.56,0,0,0,195,52.69H168.33L62.57,158.75H195A8.57,8.57,0,0,0,203.59,150.17Z"/><rect class="cls-5" x="22.64" y="65.66" width="180.95" height="18.17"/><rect class="cls-1" x="34.63" y="117.57" width="146.16" height="12.58"/><path class="cls-1" d="M224.41,206.29a15.85,15.85,0,0,0-20.93-22.62,27.93,27.93,0,0,0-55.23-4.59A18.29,18.29,0,0,0,138.12,176a18.59,18.59,0,0,0-18.56,18.63,18.78,18.78,0,0,0,3.82,11.4Z"/><polygon class="cls-6" points="133.04 17.09 121.93 20.7 133.04 24.3 136.62 35.52 140.19 24.3 151.31 20.7 140.19 17.09 136.62 5.87 133.04 17.09"/><polygon class="cls-6" points="36.69 186.31 28.85 188.85 36.69 191.39 39.21 199.3 41.73 191.39 49.56 188.85 41.73 186.31 39.21 178.4 36.69 186.31"/><polygon class="cls-6" points="215.03 112.56 207.19 115.1 215.03 117.64 217.55 125.55 220.06 117.64 227.9 115.1 220.06 112.56 217.55 104.66 215.03 112.56"/><path class="cls-1" d="M80,102.75l2.43-8.11,2.46,8.11Zm6.27-9.54c-.48-1.46-.75-1.8-2.14-1.8h-3.4l-5.44,17.78H78l1.16-3.84h6.49l1.17,3.84h4.81Z"/><path class="cls-1" d="M53.53,106.81V93.73h2.29a2.05,2.05,0,0,1,2,2A2.11,2.11,0,0,1,57.42,97l-1.48,2.23c1.55.37,2.58,1.55,2.58,3.77,0,2.67-1.6,3.8-3.72,3.8Zm5.77-8.43.85-1.29c1.85-2.73.57-5.69-3.06-5.69H49.35v17.79h7.47c6.57,0,8.56-7.64,2.48-10.81"/><path class="cls-1" d="M39.75,106.81H38.48V93.73h2.28a2.06,2.06,0,0,1,2.06,2A2.18,2.18,0,0,1,42.37,97l-1.48,2.23c1.53.37,2.57,1.55,2.57,3.77,0,2.67-1.6,3.8-3.71,3.8m4.48-8.43.87-1.29c1.83-2.73.57-5.69-3.06-5.69H34.29v17.79h7.48c6.56,0,8.54-7.64,2.46-10.81"/><path class="cls-1" d="M67.11,93.72c-.64-2-1-2.32-2.17-2.32H61.8l5.81,17.79h4.28L77.31,91.4H74.49l-4,13.51Z"/></g></g></svg>