<?xml version="1.0" standalone="no"?>
<!DOCTYPE svg PUBLIC "-//W3C//DTD SVG 20010904//EN"
 "http://www.w3.org/TR/2001/REC-SVG-20010904/DTD/svg10.dtd">
<svg version="1.0" xmlns="http://www.w3.org/2000/svg"
 width="465.000000pt" height="117.000000pt" viewBox="0 0 465.000000 117.000000"
 preserveAspectRatio="xMidYMid meet">
<metadata>
Created by potrace 1.15, written by Peter Selinger 2001-2017
</metadata>
<g transform="translate(0.000000,117.000000) scale(0.100000,-0.100000)"
fill="#000000" stroke="none">
<path d="M7 1163 c-4 -3 -7 -267 -7 -585 l0 -578 2325 0 2325 0 -2 583 -3 582
-2316 3 c-1274 1 -2319 -1 -2322 -5z m1059 -258 c152 -27 264 -95 264 -161 0
-9 -18 -34 -39 -55 -64 -60 -199 -96 -381 -101 l-105 -3 -5 120 -5 120 -44
-117 -43 -118 -37 0 c-45 0 -170 34 -221 60 -44 22 -90 74 -90 100 0 26 46 78
89 100 43 21 133 49 199 60 84 14 324 11 418 -5z m1318 -77 c24 -34 21 -119
-4 -146 -48 -52 -105 -12 -105 73 0 38 5 59 19 74 25 28 70 27 90 -1z m2020
-3 c23 -35 21 -106 -5 -139 -20 -25 -53 -33 -75 -18 -35 23 -45 102 -19 152
21 40 74 43 99 5z m-3714 -269 c0 -16 -95 -293 -108 -316 -23 -39 -256 26
-317 89 -21 23 -26 36 -23 67 2 32 10 44 46 71 53 41 149 71 272 88 127 17
130 17 130 1z m263 -12 c91 -17 168 -49 215 -88 64 -55 36 -129 -67 -172 -55
-23 -179 -52 -241 -56 l-55 -3 -3 160 c-1 87 0 165 2 172 6 13 11 13 149 -13z
m842 12 c48 -21 68 -56 61 -108 -7 -50 -7 -49 0 -113 4 -43 1 -54 -20 -80
l-24 -30 -166 -3 c-132 -3 -166 -1 -167 10 -3 36 4 324 8 331 8 14 271 8 308
-7z m333 -4 c15 -15 172 -313 172 -327 0 -3 -18 -5 -40 -5 -38 0 -41 3 -65 50
l-26 51 -86 -3 c-74 -3 -87 -6 -97 -23 -35 -64 -47 -75 -82 -75 -19 0 -34 5
-34 11 0 16 161 323 174 331 20 14 66 8 84 -10z m400 -92 c64 -55 120 -100
125 -100 4 0 7 45 7 99 0 99 0 99 26 105 15 4 31 3 35 -1 6 -6 13 -240 9 -330
0 -8 -14 -13 -34 -13 -29 0 -53 16 -158 106 l-123 105 -5 -103 -5 -103 -32 -3
c-22 -2 -33 1 -34 10 -3 45 4 324 8 331 14 23 72 -10 181 -103z m546 100 c146
-33 186 -218 68 -308 -34 -26 -41 -27 -152 -27 -108 0 -119 2 -153 25 -41 28
-77 94 -77 142 0 43 36 113 70 138 50 36 161 50 244 30z m1344 -32 l3 -38
-140 0 -141 0 0 -30 0 -29 113 -3 112 -3 0 -30 0 -30 -90 -2 c-125 -4 -137 -8
-133 -41 l3 -27 138 -3 137 -3 0 -35 0 -34 -172 2 -173 3 -3 159 c-2 110 1
163 9 172 10 12 44 14 173 12 l161 -3 3 -37z m-807 1 c40 -43 40 -99 1 -138
-15 -15 -34 -30 -42 -33 -12 -4 -7 -17 23 -60 48 -71 48 -80 -5 -76 -38 3 -45
8 -79 58 -55 80 -55 80 -109 80 -77 0 -80 -3 -80 -77 l0 -64 -32 3 -33 3 -3
155 c-1 85 0 160 2 167 4 10 44 13 167 13 l161 0 29 -31z m417 -1 c-3 -33 -3
-33 -65 -36 l-63 -3 0 -134 0 -135 -40 0 c-31 0 -40 4 -41 18 -1 9 -2 69 -3
132 l-1 115 -65 5 c-65 5 -65 5 -68 38 l-3 32 176 0 176 0 -3 -32z"/>
<path d="M1552 347 c-6 -7 -9 -23 -5 -35 5 -22 9 -23 117 -20 l111 3 0 30 0
30 -106 3 c-79 2 -109 -1 -117 -11z"/>
<path d="M2900 477 c-14 -7 -34 -29 -44 -48 -17 -31 -18 -40 -7 -67 19 -46 68
-65 158 -60 68 3 77 6 100 33 20 23 24 36 20 67 -6 42 -22 63 -62 78 -37 14
-135 12 -165 -3z"/>
</g>
</svg>
