<?xml version="1.0" standalone="no"?>
<!DOCTYPE svg PUBLIC "-//W3C//DTD SVG 20010904//EN"
 "http://www.w3.org/TR/2001/REC-SVG-20010904/DTD/svg10.dtd">
<svg version="1.0" xmlns="http://www.w3.org/2000/svg"
 width="646.000000pt" height="543.000000pt" viewBox="0 0 646.000000 543.000000"
 preserveAspectRatio="xMidYMid meet">
<metadata>
Created by potrace 1.15, written by Peter Selinger 2001-2017
</metadata>
<g transform="translate(0.000000,543.000000) scale(0.100000,-0.100000)"
fill="#000000" stroke="none">
<path d="M0 5145 l0 -285 88 -1 c81 -1 185 1 189 5 0 0 4 128 8 284 l8 282
-147 0 -146 0 0 -285z"/>
<path d="M718 4714 c-5 -4 -8 -139 -8 -301 l0 -293 144 0 c187 0 200 3 258 61
47 47 48 49 48 110 0 71 -27 129 -79 167 l-31 23 25 49 c28 56 31 89 11 129
-24 45 -58 54 -216 59 -80 2 -148 0 -152 -4z m229 -84 c17 -6 36 -23 42 -37
11 -23 8 -32 -18 -75 -17 -27 -31 -53 -31 -57 0 -4 13 -17 30 -29 41 -31 57
-87 40 -147 -14 -50 -39 -73 -92 -84 -71 -15 -68 -23 -68 214 0 161 3 215 13
218 21 9 53 7 84 -3z"/>
<path d="M1228 4714 c-5 -4 -8 -139 -8 -301 l0 -293 153 0 c126 0 159 4 192
19 70 32 105 86 105 162 0 56 -20 98 -70 143 l-44 39 21 37 c43 74 37 131 -18
172 -21 16 -49 20 -175 25 -82 3 -152 2 -156 -3z m252 -99 c28 -25 25 -63 -10
-115 l-29 -44 25 -16 c13 -9 31 -25 39 -36 17 -23 20 -113 4 -147 -15 -33 -60
-57 -108 -57 l-41 0 0 213 c0 118 3 217 8 221 12 13 92 -1 112 -19z"/>
<path d="M1645 4710 c-5 -8 33 -129 150 -485 l33 -100 74 -3 74 -3 22 73 c13
40 36 118 53 173 17 55 46 150 65 211 19 61 34 116 34 122 0 20 -68 27 -86 10
-3 -4 -21 -58 -39 -120 -70 -238 -87 -293 -93 -302 -7 -12 -14 8 -72 199 -57
188 -65 211 -80 220 -18 11 -129 15 -135 5z"/>
<path d="M2278 4707 c-8 -7 -38 -91 -67 -187 -62 -206 -88 -289 -107 -348 -8
-23 -14 -45 -14 -48 0 -3 21 -4 47 -2 46 3 48 4 59 44 25 86 23 85 137 82
l102 -3 20 -60 20 -60 82 -3 82 -3 -95 283 c-52 156 -102 289 -109 297 -18 19
-137 25 -157 8z m90 -230 c46 -150 47 -147 -37 -147 -39 0 -72 4 -76 9 -3 5 1
29 9 53 8 24 24 76 36 116 11 39 24 72 29 72 4 0 22 -47 39 -103z"/>
<path d="M2858 4714 c-17 -5 -18 -28 -18 -301 l0 -295 143 4 c161 4 190 13
228 75 46 74 21 191 -47 222 l-27 12 33 34 c30 31 33 40 34 94 2 112 -52 150
-221 156 -59 2 -116 2 -125 -1z m214 -64 c21 -6 44 -21 53 -33 23 -33 19 -91
-9 -124 -23 -27 -28 -28 -117 -28 l-94 0 -3 84 c-2 46 -1 90 2 98 7 16 113 18
168 3z m38 -268 c68 -34 81 -113 27 -167 -37 -37 -84 -49 -177 -43 l-55 3 -3
99 c-1 55 0 106 2 113 8 21 162 18 206 -5z"/>
<path d="M3383 4557 c-48 -18 -61 -34 -42 -53 15 -14 21 -14 68 2 60 19 123
14 152 -12 14 -12 19 -30 19 -66 l0 -48 -74 0 c-103 0 -133 -8 -172 -47 -29
-29 -34 -41 -34 -81 0 -65 27 -105 84 -127 51 -20 106 -17 157 9 29 14 34 14
49 1 9 -8 24 -15 33 -15 15 0 17 19 17 185 0 207 -5 226 -67 251 -39 17 -146
17 -190 1z m192 -287 c0 -51 -2 -56 -34 -77 -75 -50 -181 -20 -181 51 1 63 40
87 140 83 l75 -2 0 -55z"/>
<path d="M3757 4563 c-4 -3 -7 -105 -7 -225 l0 -218 30 0 30 0 0 164 0 165 28
19 c42 29 89 45 133 45 70 0 74 -9 77 -213 l3 -180 30 0 31 0 -4 196 -3 196
-33 29 c-27 24 -41 29 -85 29 -32 0 -75 -10 -111 -25 -33 -13 -61 -23 -62 -22
-1 1 -7 12 -13 25 -11 22 -31 29 -44 15z"/>
<path d="M4293 4549 c-116 -57 -152 -237 -71 -355 59 -86 213 -109 298 -44 24
18 24 20 8 36 -17 17 -20 17 -53 1 -48 -23 -122 -22 -162 3 -89 54 -96 224
-13 294 40 33 95 41 152 21 51 -17 81 -11 76 14 -9 49 -157 68 -235 30z"/>
<path d="M4704 4555 c-48 -21 -99 -87 -112 -145 -16 -67 -15 -86 4 -151 52
-176 294 -201 377 -39 25 49 28 63 25 137 -3 71 -7 87 -33 125 -55 78 -173
111 -261 73z m174 -61 c34 -22 62 -90 62 -152 0 -106 -54 -172 -141 -172 -88
0 -132 38 -149 128 -18 95 25 191 93 211 40 12 105 5 135 -15z"/>
<path d="M5087 4564 c-4 -4 -7 -106 -7 -226 l0 -218 30 0 30 0 0 168 0 167 35
23 c63 43 147 49 171 11 4 -7 7 -87 6 -178 -1 -91 2 -172 7 -179 4 -8 19 -12
32 -10 l24 3 3 167 2 167 45 27 c56 32 131 37 151 9 11 -14 14 -63 14 -197 l0
-178 30 0 30 0 0 184 c0 102 -4 196 -10 210 -22 59 -116 72 -211 30 l-58 -26
-31 26 c-43 35 -113 36 -182 1 -28 -14 -51 -24 -52 -23 -15 38 -43 57 -59 42z"/>
<path d="M5884 4555 c-45 -20 -91 -78 -109 -137 -18 -62 -19 -81 -3 -148 32
-137 176 -196 323 -131 75 33 52 78 -25 47 -55 -22 -137 -21 -176 3 -34 21
-64 75 -64 115 l0 26 161 0 162 0 -6 67 c-7 76 -38 125 -98 155 -40 21 -120
22 -165 3z m162 -66 c24 -23 48 -85 38 -101 -7 -11 -241 -10 -248 1 -15 24 37
104 79 122 34 15 104 3 131 -22z"/>
<path d="M6227 4563 c-4 -3 -7 -105 -7 -225 l0 -218 29 0 c18 0 31 6 35 17 4
9 6 82 5 161 l-2 145 31 28 c18 16 44 31 59 34 52 12 73 24 73 45 0 29 -55 27
-114 -5 -43 -23 -47 -23 -53 -7 -10 28 -40 41 -56 25z"/>
</g>
</svg>
