<?xml version="1.0" standalone="no"?>
<!DOCTYPE svg PUBLIC "-//W3C//DTD SVG 20010904//EN"
 "http://www.w3.org/TR/2001/REC-SVG-20010904/DTD/svg10.dtd">
<svg version="1.0" xmlns="http://www.w3.org/2000/svg"
 width="960.000000pt" height="560.000000pt" viewBox="0 0 960.000000 560.000000"
 preserveAspectRatio="xMidYMid meet">
<metadata>
Created by potrace 1.15, written by Peter Selinger 2001-2017
</metadata>
<g transform="translate(0.000000,560.000000) scale(0.100000,-0.100000)"
fill="#000000" stroke="none">
<path d="M1625 3526 c-156 -37 -253 -91 -367 -208 -49 -48 -88 -93 -88 -98 0
-6 37 -10 86 -10 l86 0 61 55 c101 91 218 135 362 135 149 0 305 -57 405 -147
l49 -44 80 3 81 3 -45 57 c-85 109 -234 207 -370 243 -83 23 -264 28 -340 11z"/>
<path d="M8339 3386 c-80 -32 -126 -62 -191 -125 -76 -71 -77 -94 -8 -176 53
-62 59 -75 36 -75 -23 0 -176 -67 -197 -86 -48 -43 -43 -183 11 -323 50 -129
86 -145 204 -92 l64 29 4 -109 c4 -102 6 -111 31 -137 75 -78 361 -109 424
-46 23 23 25 31 22 110 -2 46 -3 84 -3 84 1 0 17 -6 35 -14 19 -8 71 -21 116
-30 74 -16 85 -16 112 -2 62 32 131 161 159 295 16 79 16 81 -4 108 -16 22
-37 32 -95 46 -40 10 -75 20 -77 21 -1 2 14 27 34 57 20 30 47 76 61 103 24
47 24 50 8 92 -29 77 -141 183 -249 235 -69 34 -101 21 -151 -64 -22 -36 -42
-66 -45 -66 -3 0 -20 21 -37 47 -18 26 -53 68 -79 95 -40 41 -51 47 -87 47
-23 0 -67 -11 -98 -24z m261 -243 c-18 -32 -34 -59 -35 -61 -1 -1 -16 5 -33
15 -29 17 -33 16 -100 -6 -56 -18 -75 -20 -91 -11 -29 15 -26 35 9 60 50 36
130 58 208 59 l74 1 -32 -57z m223 -53 c19 -16 46 -46 60 -67 28 -41 71 -153
58 -153 -4 0 -33 5 -65 12 -53 10 -57 13 -51 35 6 26 -5 51 -46 103 -66 85
-33 138 44 70z m-125 -181 c31 -18 58 -33 60 -35 2 -1 -3 -13 -11 -26 -17 -26
-43 -106 -51 -158 l-6 -35 -130 0 -130 0 0 27 c0 29 -45 157 -60 172 -14 14
-12 36 3 36 18 0 112 65 148 104 l32 33 44 -43 c24 -24 69 -57 101 -75z m-433
34 l37 -43 -23 -19 c-21 -17 -24 -27 -22 -83 4 -78 -11 -120 -41 -116 -46 7
-59 181 -20 277 9 23 20 39 24 34 4 -4 24 -27 45 -50z m660 -223 c21 -33 -58
-168 -127 -219 -61 -45 -68 -42 -68 34 0 61 1 65 23 65 28 0 38 7 67 50 50 74
87 99 105 70z m-495 -142 c12 -25 27 -36 70 -50 64 -21 96 -49 86 -74 -15 -39
-178 6 -255 71 l-33 29 53 27 c30 16 56 28 59 28 3 0 12 -14 20 -31z"/>
<path d="M2598 3277 l-68 -41 0 -453 0 -453 75 0 75 0 0 45 0 46 23 -21 c72
-69 199 -85 292 -37 105 53 166 151 187 296 14 102 0 211 -38 288 -77 160
-283 212 -420 108 -18 -14 -35 -25 -38 -25 -3 0 -6 65 -6 145 0 80 -3 145 -7
144 -5 0 -38 -19 -75 -42z m329 -326 c97 -44 139 -209 91 -353 -47 -140 -191
-168 -305 -60 l-33 30 0 155 0 155 37 32 c70 62 135 75 210 41z"/>
<path d="M1745 3267 l-70 -44 0 -71 0 -72 -62 0 -63 0 0 -75 0 -75 59 0 60 0
3 -232 c3 -222 4 -235 26 -273 31 -53 60 -73 123 -85 55 -11 71 -9 130 17 33
14 38 20 48 71 17 85 17 85 -29 62 -50 -26 -94 -26 -120 0 -19 19 -20 33 -20
233 l0 212 75 -3 75 -4 0 76 0 76 -75 0 -75 0 0 115 c0 63 -3 115 -8 115 -4 0
-39 -20 -77 -43z"/>
<path d="M804 3101 c-106 -26 -206 -111 -257 -219 -29 -61 -32 -76 -32 -162 0
-85 3 -102 31 -160 75 -158 248 -250 412 -220 71 13 168 59 206 99 l29 30 -49
54 -49 53 -42 -32 c-83 -64 -189 -65 -278 -4 -109 75 -127 248 -37 343 87 92
238 98 330 14 l23 -21 51 51 c58 59 58 61 -19 114 -87 60 -216 84 -319 60z"/>
<path d="M4240 3095 c-19 -9 -45 -26 -57 -37 l-23 -21 0 31 0 32 -80 0 -80 0
0 -385 0 -386 78 3 77 3 5 280 c6 318 6 320 86 351 75 28 152 7 191 -53 16
-24 19 -62 23 -303 l5 -275 75 0 75 0 0 280 c0 308 -4 336 -58 406 -48 63 -95
83 -197 87 -60 1 -95 -2 -120 -13z"/>
<path d="M5694 3099 c-17 -5 -43 -20 -57 -33 l-27 -25 0 29 0 30 -80 0 -80 0
2 -382 3 -383 73 -3 72 -3 0 263 c0 236 2 267 19 305 11 23 31 49 45 58 70 46
178 19 215 -54 20 -38 21 -57 21 -306 l0 -265 70 0 70 0 0 267 c0 248 1 270
20 309 26 54 74 78 138 71 53 -6 88 -30 113 -77 17 -31 19 -61 19 -303 l0
-268 73 3 72 3 0 290 c0 284 -1 291 -24 342 -28 63 -85 118 -138 132 -51 15
-156 14 -207 -1 -22 -7 -57 -29 -77 -49 l-36 -36 -28 34 c-15 19 -43 41 -61
49 -37 16 -161 17 -210 3z"/>
<path d="M6824 3097 c-109 -28 -186 -95 -226 -197 -17 -43 -22 -76 -22 -155 0
-149 38 -251 123 -328 64 -58 103 -71 211 -70 104 0 186 23 237 67 l27 23 -38
45 -38 46 -53 -24 c-71 -33 -166 -36 -220 -8 -50 26 -95 88 -102 142 l-6 42
258 0 257 0 -4 93 c-3 72 -10 104 -30 148 -33 73 -87 132 -145 159 -57 27
-160 34 -229 17z m176 -142 c38 -19 79 -81 87 -129 l6 -36 -187 0 c-183 0
-187 1 -182 20 3 11 9 30 12 43 11 39 55 89 98 108 47 23 116 20 166 -6z"/>
<path d="M3453 3081 c-69 -19 -133 -46 -133 -56 0 -5 48 -84 56 -94 2 -2 23 3
46 12 127 48 207 42 265 -20 28 -29 33 -42 33 -84 0 -27 -2 -49 -4 -49 -2 0
-20 7 -39 15 -47 19 -188 20 -251 1 -105 -32 -165 -98 -173 -193 -13 -145 67
-251 206 -274 80 -13 151 1 215 41 l46 30 0 -40 0 -40 75 0 75 0 0 290 c0 288
0 291 -24 339 -59 116 -224 167 -393 122z m232 -402 c28 -13 30 -19 33 -75 3
-59 2 -62 -33 -88 -74 -57 -155 -71 -222 -39 -61 29 -92 110 -62 165 21 38 86
59 174 55 44 -2 94 -10 110 -18z"/>
<path d="M4935 3090 c-52 -11 -153 -49 -160 -60 -6 -9 43 -100 54 -100 4 0 34
10 66 21 117 42 211 25 256 -47 16 -26 28 -114 15 -114 -2 0 -23 7 -46 15 -55
19 -182 19 -247 0 -116 -34 -173 -108 -173 -225 0 -151 98 -242 260 -243 79
-1 150 22 179 56 22 27 31 20 31 -23 l0 -40 75 0 75 0 0 288 c0 316 -4 336
-66 397 -68 64 -212 99 -319 75z m203 -413 c31 -17 32 -20 32 -77 0 -53 -3
-60 -29 -79 -50 -36 -114 -61 -156 -61 -83 0 -150 59 -149 131 2 44 23 74 69
96 42 19 189 12 233 -10z"/>
<path d="M7268 3058 c59 -98 142 -239 166 -283 l29 -51 -108 -174 c-59 -96
-110 -180 -112 -187 -4 -10 15 -13 74 -13 l80 0 76 137 76 136 16 -29 c9 -16
42 -76 73 -134 l57 -105 78 -3 c51 -2 77 1 77 8 0 6 -45 88 -101 183 -55 95
-101 175 -102 178 -1 3 42 80 95 170 53 90 100 172 104 182 5 15 -2 17 -72 17
l-79 0 -70 -120 c-38 -66 -72 -120 -75 -120 -3 0 -37 53 -76 118 l-70 117 -78
3 -78 3 20 -33z"/>
<path d="M1260 2695 l0 -365 75 0 75 0 0 365 0 365 -75 0 -75 0 0 -365z"/>
<path d="M2130 2695 l0 -365 75 0 75 0 0 365 0 365 -75 0 -75 0 0 -365z"/>
</g>
</svg>
